<?xml version="1.0" encoding="UTF-8"?>
<svg id="Layer_1" xmlns="http://www.w3.org/2000/svg" version="1.1" viewBox="0 0 500 500">
  <!-- Generator: Adobe Illustrator 29.1.0, SVG Export Plug-In . SVG Version: 2.1.0 Build 142)  -->
  <defs>
    <style>
      .st0 {
        display: none;
      }
    </style>
  </defs>
  <g class="st0">
    <path d="M76.64,288.32c-1.8-4.4-5.94-6.9-7.54-11.23-1.9-5.17-5.01-9.77-6.92-15.06-1.61-4.43-4.18-8.66-5.23-13.37-2.91-13.17-4.66-26.37-1.97-39.9,1.01-5.1,1.3-10.32,3.08-15.3,2.96-8.3,6.28-16.39,10.73-24.04,5.27-9.05,11.97-16.91,19.52-23.99,6.85-6.43,14.51-11.9,23.06-15.96,10.32-4.91,21.15-8.34,32.48-9.57,6.81-.74,13.78-.63,20.64-.21,7.49.45,14.93,1.64,22.14,3.99,7.04,2.29,13.76,5.14,20.22,8.85,7.54,4.32,14.67,9.29,20.81,15.22,6.14,5.94,11.63,12.72,16.11,20.15,1.3,2.15,2.87,4.06,4.57,5.94,2.16,2.4,3.17,1.43,4.3-.71,7.78-14.73,18.55-26.92,32.14-36.41,9.13-6.37,19.22-10.95,30.05-14.02,13.46-3.82,27.14-4.33,40.79-2.74,13.06,1.53,25.29,6.3,36.9,12.54,10.64,5.73,19.16,13.96,27.35,22.68,5.89,6.28,10.2,13.52,14.19,20.99,10.59,19.83,14.24,40.95,11.3,63.23-1.67,12.68-5.25,24.76-11.52,35.93-4.33,7.72-9.86,14.63-15.63,21.32-6.41,7.44-13.09,14.65-19.27,22.27-6.41,7.89-13.3,15.34-19.85,23.1-10.68,12.67-21.72,25.04-32.47,37.66-5.58,6.55-11.13,13.18-17.05,19.45-9.82,10.39-29.5,12.7-42.39,3.51-6.21-4.43-10.84-10.32-15.64-16.1-3.83-4.61-7.93-8.99-11.84-13.53-1.92-2.23-3.45-4.77-5.55-6.89-1.72-1.73-2.8-2.22-4.63.01-7.96,9.68-16.2,19.13-24.12,28.83-7.23,8.86-16.42,13.77-27.81,13.46-8.62-.24-16.93-2.89-22.69-9.59-6.42-7.46-13.48-14.32-19.79-21.89-6.27-7.53-13.51-14.27-19.65-21.9-5.07-6.31-10.84-11.95-16.06-18.1-5.07-5.97-10.42-11.73-15.37-17.8-8.65-10.61-18.78-19.88-27.4-30.83M237.75,315.88c10.24,12.42,21.44,24.01,31.44,36.67,8.54,10.81,18.17,20.75,26.96,31.39,3.91,4.73,15.22,5.37,20.08-.33,5.45-6.39,10.63-13.03,16.31-19.16,6.58-7.1,12.92-14.41,19.21-21.74,9.41-10.98,18.91-21.89,28.26-32.92,2.11-2.49,4.35-4.86,6.46-7.34,4.17-4.9,8.27-9.85,12.43-14.76,3.52-4.14,7.32-8.07,10.58-12.41,5.1-6.82,9.23-14.21,12.13-22.29,3.39-9.46,5.42-19.25,5.01-29.17-.37-8.83-1.74-17.64-5-26.15-5.49-14.34-13.33-26.88-24.9-37.04-13.02-11.42-28.32-18.22-45.23-20.66-17.21-2.49-33.65,1.22-48.87,9.68-13.48,7.5-23.99,18.1-31.5,31.58-2.7,4.85-5.31,9.85-6.54,15.3-1.44,6.36-7.07,11.55-13.84,12.07-5.79.45-11.85-3.58-13.94-9.45-3.11-8.77-7.4-16.85-12.86-24.41-10.71-14.81-24.68-25.04-42.41-31.01-7.29-3.16-15.1-4.03-22.85-4.6-5.67-.42-11.35.73-17.03,1.73-12.17,2.14-23.16,6.69-33.03,13.95-12.52,9.21-22.27,20.67-28.42,35.15-3.68,8.66-6.24,17.62-6.62,26.89-.4,9.66.09,19.38,2.92,28.87,2.17,7.28,5.12,14.17,8.76,20.78,3.87,7.05,9.68,12.59,14.74,18.73,10.51,12.72,22.09,24.47,32.78,37.02,9.25,10.85,19.31,21.01,28.5,31.92,8.3,9.86,17.46,18.92,25.64,28.88,3.63,4.42,13.7,6.94,18.22,3.71,3.98-2.85,6.98-6.53,9.97-10.27,2.79-3.48,5.55-6.99,8.38-10.44,4.41-5.37,8.86-10.7,13.29-16.06,1.54-1.86,1.19-3.46-.43-5.18-2.99-3.18-5.87-6.47-8.68-9.81-4.45-5.32-8.73-10.78-13.21-16.07-8.11-9.55-16.47-18.91-24.46-28.56-6.43-7.77-12.53-15.81-19.34-23.27-1.49-1.63-3.16-2.58-5.73-2.3-7.23.8-13.95-.44-19.04-6.33-3.47-4.02-7.13-7.88-10.45-12.02-5.79-7.21-10.8-15.02-16.77-22.1-.65-.77-1.43-1.69-.92-3.06,1.28-.07,30.96-25,31.27-26.82,1.39-.19,2.02.69,2.65,1.38,8.49,9.21,18.27,17.16,26.01,27.1,4.85,6.23,9.07,12.59,7.43,21.05-.86,4.44.58,8.08,2.98,11.85,5.72,9.01,13.89,16,19.88,24.7"/>
    <path d="M362.92,258.49c-7.38,6.77-15.82,9.4-25.43,7.63-3.33-.61-5.32-.07-7.79,2.74-10.47,11.97-20.17,24.57-30.25,36.84-8.99,10.94-18.56,21.4-26.98,32.81-1.53,2.07-3.02,2.64-5.3.36-3.17-3.17-6.01-6.62-9.13-9.82-1.59-1.63-1.74-3.15-.05-5.11,6.82-7.94,13.5-15.99,20.14-24.08,8.56-10.42,17.02-20.92,25.53-31.38,3.44-4.23,6.88-8.45,10.34-12.65,1.97-2.38,3.12-4.67,1.67-7.99-1.15-2.65-1.57-5.69-1.91-8.61-.98-8.41,2.02-15.68,7.3-21.96,4.21-5,8.98-9.48,13.98-13.73,8.51-7.25,17.9-12.75,28.99-14.9,4.27-.83,8.61.3,12.44,1.7,4.03,1.47,5.68,5.94,6.84,9.93,2.25,7.76,1.46,15.56-.78,23.21-3.83,13.08-10.49,24.6-19.59,35.01Z"/>
  </g>
  <g class="st0">
    <path d="M76.64,288.17c-1.8-4.4-5.94-6.9-7.54-11.23-1.9-5.17-5.01-9.77-6.92-15.06-1.61-4.43-4.18-8.66-5.23-13.37-2.91-13.17-4.66-26.37-1.97-39.9,1.01-5.1,1.3-10.32,3.08-15.3,2.96-8.3,6.28-16.39,10.73-24.04,5.27-9.05,11.97-16.91,19.52-23.99,6.85-6.43,14.51-11.9,23.06-15.96,10.32-4.91,21.15-8.34,32.48-9.57,6.81-.74,13.78-.63,20.64-.21,7.49.45,14.93,1.64,22.14,3.99,7.04,2.29,13.76,5.14,20.22,8.85,7.54,4.32,14.67,9.29,20.81,15.22,6.14,5.94,11.63,12.72,16.11,20.15,1.3,2.15,2.87,4.06,4.57,5.94,2.16,2.4,3.17,1.43,4.3-.71,7.78-14.73,18.55-26.92,32.14-36.41,9.13-6.37,19.22-10.95,30.05-14.02,13.46-3.82,27.14-4.33,40.79-2.74,13.06,1.53,25.29,6.3,36.9,12.54,10.64,5.73,19.16,13.96,27.35,22.68,5.89,6.28,10.2,13.52,14.19,20.99,10.59,19.83,14.24,40.95,11.3,63.23-1.67,12.68-5.25,24.76-11.52,35.93-4.33,7.72-9.86,14.63-15.63,21.32-6.41,7.44-13.09,14.65-19.27,22.27-6.41,7.89-13.3,15.34-19.85,23.1-10.68,12.67-21.72,25.04-32.47,37.66-5.58,6.55-11.13,13.18-17.05,19.45-9.82,10.39-29.5,12.7-42.39,3.51-6.21-4.43-10.84-10.32-15.64-16.1-3.83-4.61-7.93-8.99-11.84-13.53-1.92-2.23-3.45-4.77-5.55-6.89-1.72-1.73-2.8-2.22-4.63.01-7.96,9.68-16.2,19.13-24.12,28.83-7.23,8.86-16.42,13.77-27.81,13.46-8.62-.24-16.93-2.89-22.69-9.59-6.42-7.46-13.48-14.32-19.79-21.89-6.27-7.53-13.51-14.27-19.65-21.9-5.07-6.31-10.84-11.95-16.06-18.1-5.07-5.97-10.42-11.73-15.37-17.8-8.65-10.61-18.78-19.88-27.4-30.83M237.75,315.73c10.24,12.42,21.44,24.01,31.44,36.67,8.54,10.81,18.17,20.75,26.96,31.39,3.91,4.73,15.22,5.37,20.08-.33,5.45-6.39,10.63-13.03,16.31-19.16,6.58-7.1,12.92-14.41,19.21-21.74,9.41-10.98,18.91-21.89,28.26-32.92,2.11-2.49,4.35-4.86,6.46-7.34,4.17-4.9,8.27-9.85,12.43-14.76,3.52-4.14,7.32-8.07,10.58-12.41,5.1-6.82,9.23-14.21,12.13-22.29,3.39-9.46,5.42-19.25,5.01-29.17-.37-8.83-1.74-17.64-5-26.15-5.49-14.34-13.33-26.88-24.9-37.04-13.02-11.42-28.32-18.22-45.23-20.66-17.21-2.49-33.65,1.22-48.87,9.68-13.48,7.5-23.99,18.1-31.5,31.58-2.7,4.85-5.31,9.85-6.54,15.3-1.44,6.36-7.07,11.55-13.84,12.07-5.79.45-11.85-3.58-13.94-9.45-3.11-8.77-7.4-16.85-12.86-24.41-10.71-14.81-24.68-25.04-42.41-31.01-7.29-3.16-15.1-4.03-22.85-4.6-5.67-.42-11.35.73-17.03,1.73-12.17,2.14-23.16,6.69-33.03,13.95-12.52,9.21-22.27,20.67-28.42,35.15-3.68,8.66-6.24,17.62-6.62,26.89-.4,9.66.09,19.38,2.92,28.87,2.17,7.28,5.12,14.17,8.76,20.78,3.87,7.05,9.68,12.59,14.74,18.73,10.51,12.72,22.09,24.47,32.78,37.02,9.25,10.85,19.31,21.01,28.5,31.92,8.3,9.86,17.46,18.92,25.64,28.88,3.63,4.42,13.7,6.94,18.22,3.71,3.98-2.85,6.98-6.53,9.97-10.27,2.79-3.48,5.55-6.99,8.38-10.44,4.41-5.37,8.86-10.7,13.29-16.06,1.54-1.86,1.19-3.46-.43-5.18-2.99-3.18-5.87-6.47-8.68-9.81-4.45-5.32-8.73-10.78-13.21-16.07-8.11-9.55-16.47-18.91-24.46-28.56-6.43-7.77-12.53-15.81-19.34-23.27-1.49-1.63,15.03-15.03,17.43-11.26,5.72,9.01,13.89,16,19.88,24.7"/>
    <path d="M362.92,258.34c-7.38,6.77-15.82,9.4-25.43,7.63-3.33-.61-5.32-.07-7.79,2.74-10.47,11.97-20.17,24.57-30.25,36.84-8.99,10.94-18.56,21.4-26.98,32.81-1.53,2.07-3.02,2.64-5.3.36-3.17-3.17-6.01-6.62-9.13-9.82-1.59-1.63-1.74-3.15-.05-5.11,6.82-7.94,13.5-15.99,20.14-24.08,8.56-10.42,17.02-20.92,25.53-31.38,3.44-4.23,6.88-8.45,10.34-12.65,1.97-2.38,3.12-4.67,1.67-7.99-1.15-2.65-1.57-5.69-1.91-8.61-.98-8.41,2.02-15.68,7.3-21.96,4.21-5,8.98-9.48,13.98-13.73,8.51-7.25,17.9-12.75,28.99-14.9,4.27-.83,8.61.3,12.44,1.7,4.03,1.47,5.68,5.94,6.84,9.93,2.25,7.76,1.46,15.56-.78,23.21-3.83,13.08-10.49,24.6-19.59,35.01Z"/>
    <path d="M166.43,200.47l25.3,31.92c5.53,6.98,4.37,17.11-2.61,22.64l-16.84,13.35c-6.97,5.52-17.11,4.35-22.63-2.62l-25.31-31.93c-.92-1.17-1.28-2.6-1.13-3.96s.83-2.67,2-3.6c2.32-1.84,5.7-1.44,7.54.88l18.46,23.29h0c1.87,2.17,5.13,2.49,7.4.69s2.69-5.04,1-7.36h0s-18.46-23.29-18.46-23.29c-.92-1.17-1.28-2.59-1.12-3.95.15-1.37.83-2.67,1.99-3.59,2.32-1.84,5.71-1.46,7.55.86l18.32,23.11h0c.04.06.08.11.13.17,1.84,2.32,5.22,2.71,7.54.87s2.71-5.22.87-7.54c-.05-.06-.09-.11-.15-.17h0s-18.32-23.12-18.32-23.12c-.92-1.17-1.29-2.59-1.13-3.96.16-1.36.83-2.67,2-3.6,2.32-1.84,5.7-1.44,7.54.88Z"/>
  </g>
  <g>
    <path d="M434.07,176.03c-3.99-7.47-8.3-14.72-14.19-20.99-8.2-8.73-16.71-16.96-27.35-22.68-11.61-6.25-23.84-11.02-36.9-12.55-13.65-1.59-27.33-1.08-40.79,2.74-10.83,3.07-20.92,7.64-30.05,14.02-13.59,9.49-24.37,21.68-32.14,36.41-.13.25-1.62,4.47-2.69,7.46-.36.99-1.77.98-2.11-.02,0,0-2.61-7.11-2.78-7.44-7.77-14.73-18.55-26.92-32.14-36.41-9.13-6.38-19.22-10.95-30.05-14.02-13.46-3.82-27.14-4.33-40.79-2.74-13.06,1.53-25.29,6.3-36.9,12.55-10.64,5.72-19.15,13.95-27.35,22.68-5.89,6.27-10.2,13.52-14.19,20.99-10.59,19.82-14.24,40.94-11.3,63.22,1.67,12.68,5.25,24.76,11.52,35.93,4.33,7.72,9.85,14.63,15.62,21.32,6.41,7.44,13.09,14.65,19.28,22.27,6.4,7.89,13.3,15.34,19.84,23.1,10.69,12.67,21.72,25.04,32.47,37.66,5.58,6.55,11.12,13.18,17.05,19.45,9.82,10.39,29.5,12.7,42.39,3.51,6.21-4.43,10.84-10.32,15.64-16.1l16.9-20.43c1.09-1.09,3.58-5.42,5.8-5.45,2.33-.03,5,4.72,6,5.71.01.01,12.87,15.56,16.7,20.17,4.8,5.78,9.43,11.67,15.64,16.1,12.89,9.19,32.57,6.88,42.39-3.51,5.93-6.27,11.47-12.9,17.05-19.45,10.75-12.62,21.78-24.99,32.47-37.66,6.54-7.76,13.44-15.21,19.84-23.1,6.19-7.62,12.87-14.83,19.28-22.27,5.77-6.69,11.29-13.6,15.62-21.32,6.27-11.17,9.85-23.25,11.52-35.93,2.94-22.28-.71-43.4-11.3-63.22ZM421.61,252.83c-2.9,8.08-7.03,15.47-12.13,22.29-3.25,4.34-7.06,8.27-10.58,12.41-4.16,4.91-16.78,19.62-18.89,22.11-9.35,11.03-18.85,21.94-28.26,32.92-6.29,7.32-12.63,14.64-19.21,21.74-5.69,6.13-10.87,12.77-16.31,19.16-4.86,5.7-16.17,5.06-20.08.33-8.79-10.64-18.42-20.58-26.96-31.39-2.61-3.31-9.01-10.88-17.14-20.42-1.71-1.87-4.67-1.87-6.38,0-8.13,9.54-14.53,17.11-17.14,20.42-8.54,10.81-18.17,20.75-26.96,31.39-3.91,4.73-15.22,5.37-20.08-.33-5.44-6.39-10.62-13.03-16.31-19.16-6.58-7.1-12.92-14.42-19.21-21.74-9.41-10.98-18.91-21.89-28.26-32.92-2.11-2.49-14.73-17.2-18.89-22.11-3.52-4.14-7.33-8.07-10.58-12.41-5.1-6.82-9.23-14.21-12.13-22.29-3.39-9.46-5.42-19.26-5.01-29.17.37-8.83,1.74-17.64,5-26.16,5.48-14.34,13.32-26.88,24.9-37.03,13.01-11.43,28.32-18.22,45.23-20.67,17.2-2.49,33.65,1.22,48.86,9.69,13.48,7.5,23.99,18.1,31.5,31.58l10.04,18.97h0s1.32,2.5,1.32,2.5l.02.04h.01c2.44,3.45,6.91,5.76,12.02,5.76s9.58-2.31,12.02-5.76h.01v-.02s1.82-4.28,1.82-4.28l7.28-17.21c7.51-13.48,18.02-24.08,31.5-31.58,15.21-8.47,31.66-12.18,48.86-9.69,16.91,2.45,32.22,9.24,45.23,20.67,11.58,10.15,19.42,22.69,24.9,37.03,3.26,8.52,4.63,17.33,5,26.16.41,9.91-1.62,19.71-5.01,29.17Z"/>
    <path d="M362.92,258.34c-7.38,6.77-15.82,9.4-25.43,7.63-3.33-.61-5.32-.07-7.79,2.74-10.47,11.97-20.17,24.57-30.25,36.84-8.99,10.94-18.56,21.4-26.98,32.81-1.53,2.07-3.02,2.64-5.3.36-3.17-3.17-6.01-6.62-9.13-9.82-1.59-1.63-1.74-3.15-.05-5.11,6.82-7.94,13.5-15.99,20.14-24.08,8.56-10.42,17.02-20.92,25.53-31.38,3.44-4.23,6.88-8.45,10.34-12.65,1.97-2.38,3.12-4.67,1.67-7.99-1.15-2.65-1.57-5.69-1.91-8.61-.98-8.41,2.02-15.68,7.3-21.96,4.21-5,8.98-9.48,13.98-13.73,8.51-7.25,17.9-12.75,28.99-14.9,4.27-.83,8.61.3,12.44,1.7,4.03,1.47,5.68,5.94,6.84,9.93,2.25,7.76,1.46,15.56-.78,23.21-3.83,13.08-10.49,24.6-19.59,35.01Z"/>
    <path d="M182.03,265.03c-8.32,6.6-14.45,13-20.53,13-.18,0-.35-.01-.53-.02-3.24-1.36-6.3-3.38-9.2-6.04l-31.97-38.39c-1.02-1.3-1.43-2.89-1.25-4.41.17-1.46.88-2.87,2.1-3.89,2.59-2.17,6.58-1.58,8.68,1.06l20.4,25.74h.01c2.08,2.41,5.71,2.77,8.24.77,2.52-2,3-5.62,1.11-8.19h0s-20.55-25.94-20.55-25.94c-1.03-1.3-1.42-2.88-1.25-4.4.17-1.49.9-2.91,2.14-3.92,2.59-2.13,6.57-1.53,8.65,1.1l20.23,25.53h.01s.04.05.06.08c1.3,1.81,3.46,2.83,5.65,2.37,4.94-1.03,6.45-6.34,3.8-9.68-.05-.07-.1-.13-.16-.19h.01l-20.4-25.74c-1.03-1.3-1.44-2.88-1.26-4.41.17-1.46.88-2.87,2.1-3.9,2.59-2.16,6.59-1.57,8.68,1.07l27.35,34.77.69.87c.14.19.29.38.43.57.87,1.12,1.57,2.21,2.13,3.27.09.15.17.3.24.44,5.54,11.03-3.83,19.14-15.62,28.48Z"/>
    <path d="M256.65,342.53c-3.12,3.2-5.96,6.65-9.13,9.82-2.27,2.27-3.77,1.71-5.3-.36-8.42-11.41-17.99-21.87-26.98-32.81-10.08-12.27-19.78-24.87-30.25-36.84-2.47-2.82-4.46-3.36-7.79-2.74-5.83,1.07-11.23.52-16.23-1.59-3.24-1.36-6.3-3.38-9.2-6.04-9.1-10.41,37.66-46.22,41.86-41.22.18.21.36.43.53.65l.69.87c.14.19.29.38.43.57.78,1.06,1.49,2.15,2.13,3.27.09.15.17.3.24.44,2.69,4.86,3.97,10.22,3.28,16.16-.34,2.92-.76,5.96-1.91,8.61-1.45,3.32-.29,5.61,1.67,7.99,3.47,4.2,6.91,8.43,10.35,12.65,8.51,10.46,16.97,20.96,25.53,31.39,6.64,8.08,13.32,16.13,20.14,24.07,1.68,1.97,1.54,3.48-.06,5.11Z"/>
  </g>
</svg>